<svg xmlns="http://www.w3.org/2000/svg" viewBox="0 0 64 64">
  <defs>
    <linearGradient id="qcBlue" x1="8" y1="6" x2="58" y2="60" gradientUnits="userSpaceOnUse">
      <stop stop-color="#2F86FF"/>
      <stop offset="1" stop-color="#0C3F92"/>
    </linearGradient>
  </defs>
  <rect x="4" y="4" width="56" height="56" rx="16" fill="url(#qcBlue)"/>
  <path d="M33.2 17.5c-8.9 0-15.5 6.3-15.5 14.7S24.3 47 33.2 47c3.9 0 7.2-1.1 9.9-3.2l4.4 4.2 4.2-4.4-4.3-4.1c1-2.2 1.5-4.6 1.5-7.3 0-8.4-6.7-14.7-15.7-14.7Zm0 6.1c5.1 0 8.8 3.7 8.8 8.6 0 1-.1 1.9-.4 2.8l-4.3-4.1-4.2 4.4 4.2 4c-1.2.8-2.6 1.2-4.1 1.2-5 0-8.6-3.7-8.6-8.4 0-4.8 3.6-8.5 8.6-8.5Z" fill="#fff"/>
</svg>
